<svg id="Layer_1" data-name="Layer 1" xmlns="http://www.w3.org/2000/svg" viewBox="0 0 455.27 434.87"><defs><style>.cls-1{fill:#4cb7c5;}.cls-2{fill:#666;fill-rule:evenodd;}</style></defs><path class="cls-1" d="M305,191.49a8.45,8.45,0,0,0-8.64-8.26,9.54,9.54,0,0,0-2.53.45L212.5,210.81a9,9,0,0,0-5.75,8.2l.07,62.94a36.39,36.39,0,0,0-9.91-1.37c-14.88,0-26.94,8.67-26.94,19.36S182,319.3,196.91,319.3c12.4,0,22.81-6,25.94-14.23a11.86,11.86,0,0,0,1.22-5.41l-.23-57.59,63.81-21.25.12,43.76a36.09,36.09,0,0,0-10.42-1.51c-14.88,0-26.93,8.67-26.93,19.36s12.05,19.36,26.93,19.36c11.5,0,21.29-5.19,25.15-12.48a12.52,12.52,0,0,0,2.52-7.59Z" transform="translate(-22.36 -32.57)"/><path class="cls-2" d="M477.64,150.34V349.66A54.36,54.36,0,0,1,423.27,404H359.86v54.35a9.06,9.06,0,0,1-9.06,9.06L242.08,358.72H414.22a18.12,18.12,0,0,0,18.12-18.12V159.4a18.12,18.12,0,0,0-18.12-18.11H287.38L242.08,96H423.27a54.36,54.36,0,0,1,54.37,54.36" transform="translate(-22.36 -32.57)"/><path class="cls-1" d="M67.66,159.4V340.6a18.12,18.12,0,0,0,18.12,18.12H212.62l45.3,45.3H76.72a54.36,54.36,0,0,1-54.36-54.36V150.34A54.35,54.35,0,0,1,76.72,96h63.42V41.63a9.05,9.05,0,0,1,9.06-9.06L257.92,141.28H85.78A18.12,18.12,0,0,0,67.66,159.4" transform="translate(-22.36 -32.57)"/></svg>