<?xml version="1.0" encoding="utf-8"?>
<!-- Generator: Adobe Illustrator 25.1.0, SVG Export Plug-In . SVG Version: 6.00 Build 0)  -->
<svg version="1.1" id="Layer_1" xmlns="http://www.w3.org/2000/svg" xmlns:xlink="http://www.w3.org/1999/xlink" x="0px" y="0px"
	 viewBox="0 0 455.1 434.3" style="enable-background:new 0 0 455.1 434.3;" xml:space="preserve">
<style type="text/css">
	.st0{fill:#ED654C;}
	.st1{fill-rule:evenodd;clip-rule:evenodd;fill:#4D4D4D;}
</style>
<path class="st0" d="M156.1,224.3c-3-3-3-7.8,0-10.8l10.8-10.8c3-3,7.8-3,10.8,0l33.5,33.5l72.3-72.3c3-3,7.8-3,10.8,0l10.8,10.8
	c3,3,3,7.8,0,10.8l-88.3,88.6c-3,3-7.8,3-10.8,0L156.1,224.3z"/>
<path class="st0" d="M45.4,126.6v181c0,10.1,8.2,18.2,18.2,18.2h126.6l45.4,45.4H54.4c-29.9,0.1-54.3-24.1-54.4-54
	c0-0.1,0-0.2,0-0.3V117.3C-0.1,87.4,24.1,63,54,62.9c0.1,0,0.2,0,0.4,0h63.3v-54c0.1-4.9,4-8.9,8.9-8.9l108.7,108.8H63.7
	c-9.8-0.3-18,7.4-18.2,17.2C45.4,126.2,45.4,126.4,45.4,126.6"/>
<path class="st1" d="M455.1,117.3v199.2c0.1,29.9-24.1,54.3-54,54.4c-0.1,0-0.2,0-0.3,0h-63.3v54.4c-0.1,4.9-4,8.9-8.9,8.9
	L219.8,325.9h172c10.1,0,18.2-8.2,18.2-18.2v-181c0-10.1-8.2-18.2-18.2-18.3H265.2l-45.4-45.1h181c29.9-0.1,54.2,24,54.4,53.9
	C455.1,117.2,455.1,117.3,455.1,117.3"/>
</svg>
