<svg id="Layer_1" data-name="Layer 1" xmlns="http://www.w3.org/2000/svg" viewBox="0 0 455.52 435.11"><defs><style>.cls-1{fill:#00bb1d;}.cls-2{fill:#666;fill-rule:evenodd;}</style></defs><path class="cls-1" d="M300.67,257.46l-71.79,42.42a9.78,9.78,0,0,1-14.77-8.42V206.59c0-8.52,8.93-11.87,14.77-8.42l71.79,42.44A9.78,9.78,0,0,1,300.67,257.46Z" transform="translate(-22.24 -32.45)"/><path class="cls-1" d="M67.56,159.35v181.3a18.13,18.13,0,0,0,18.13,18.13H212.6l45.32,45.32H76.63a54.39,54.39,0,0,1-54.39-54.39V150.29A54.39,54.39,0,0,1,76.63,95.9h63.45V41.51a9.06,9.06,0,0,1,9.06-9.06L257.92,141.22H85.69a18.13,18.13,0,0,0-18.13,18.13" transform="translate(-22.24 -32.45)"/><path class="cls-2" d="M477.76,150.29V349.71a54.39,54.39,0,0,1-54.39,54.39H359.92v54.39a9.06,9.06,0,0,1-9.06,9.06L242.08,358.78H414.31a18.13,18.13,0,0,0,18.13-18.13V159.35a18.13,18.13,0,0,0-18.13-18.13H287.4L242.08,95.9H423.37a54.39,54.39,0,0,1,54.39,54.39" transform="translate(-22.24 -32.45)"/></svg>