<svg id="Layer_1" data-name="Layer 1" xmlns="http://www.w3.org/2000/svg" viewBox="0 0 462.62 441.89"><defs><style>.cls-1{fill:#00bb1d;}.cls-2{fill:#4d4d4d;fill-rule:evenodd;}</style></defs><path class="cls-1" d="M64.72,157.94V342.06a18.41,18.41,0,0,0,18.41,18.41H212l46,46H73.92a55.23,55.23,0,0,1-55.23-55.23V148.73A55.23,55.23,0,0,1,73.92,93.5h64.45V38.26a9.21,9.21,0,0,1,9.2-9.21L258,139.53H83.13a18.41,18.41,0,0,0-18.41,18.41" transform="translate(-18.69 -29.05)"/><path class="cls-2" d="M481.31,148.73V351.26a55.24,55.24,0,0,1-55.23,55.24H361.63v55.24a9.21,9.21,0,0,1-9.2,9.21L242,360.47H416.87a18.41,18.41,0,0,0,18.41-18.41V157.94a18.42,18.42,0,0,0-18.41-18.42H288l-46-46H426.08a55.23,55.23,0,0,1,55.23,55.23" transform="translate(-18.69 -29.05)"/></svg>